<svg width="221" height="50" viewBox="0 0 221 50" fill="none" xmlns="http://www.w3.org/2000/svg"><path d="M195.817 43.242C205.954 43.242 214.081 35.0457 214.081 24.9087C214.081 14.7717 205.954 6.64384 195.817 6.64384C185.68 6.64384 177.553 14.8402 177.553 24.9087C177.575 34.9543 185.772 43.242 195.817 43.242ZM170.932 0H220.794V49.863H170.932V0Z" fill="black"/><path fill-rule="evenodd" clip-rule="evenodd" d="M98.1487 32.4658C95.2264 38.8128 88.8795 43.242 81.4595 43.242C71.6196 43.242 63.5604 35.3881 63.1951 25.6164H106.413V0H56.5742V49.863H106.436V32.4658H98.1487ZM63.9942 19.4749H98.8108C96.2538 10.9817 89.4046 6.64384 81.4824 6.64384C73.5602 6.64384 66.1859 11.2785 63.9942 19.4749Z" fill="black"/><path d="M49.862 0H0V49.863H49.862V32.4658H41.5973C38.7435 38.8128 32.3281 43.242 24.9766 43.242C14.8399 43.242 6.6437 34.9772 6.6437 24.9087C6.6437 14.8402 14.8399 6.64384 24.9766 6.64384C32.4651 6.64384 38.8805 11.21 41.7343 17.6941H49.862V0Z" fill="black"/><path d="M164.699 32.4658H156.435C153.946 39.0183 147.234 43.1735 139.609 43.1735C129.769 43.1735 121.481 36.0502 121.481 24.9087V0H113.057V49.863H164.699V32.4658Z" fill="black"/></svg>